<svg xmlns="http://www.w3.org/2000/svg" viewBox="0 0 100 100" width="100%" height="100%">
  <path d="M 85.87 62.59 L 84.33 66.63 L 82.40 70.47 L 80.12 74.04 L 77.55 77.28 L 74.72 80.12 L 71.72 82.52 L 68.60 84.46 L 65.42 85.92 L 62.26 86.88 L 59.19 87.37 L 56.26 87.41 L 53.53 87.01 L 51.04 86.23 L 48.84 85.11 L 46.94 83.71 L 45.36 82.07 L 44.11 80.26 L 43.16 78.32 L 42.51 76.30 L 42.13 74.25 L 41.96 72.21 L 41.98 70.19 L 42.12 68.21 L 42.34 66.29 L 42.58 64.42 L 42.79 62.59 L 42.93 60.79 L 42.96 58.99 L 42.85 57.18 L 42.57 55.32 L 42.11 53.39 L 41.47 51.36 L 40.65 49.23 L 39.67 46.96 L 38.56 44.57 L 37.35 42.04 L 36.09 39.40 L 34.81 36.66 L 33.57 33.86 L 32.40 31.03 L 31.36 28.22 L 30.50 25.48 L 29.83 22.86 L 29.40 20.43 L 29.23 18.25 L 29.33 16.35 L 29.71 14.80 L 30.35 13.64 L 31.25 12.90 L 32.39 12.59 L 33.73 12.75 L 35.24 13.35 L 36.88 14.40 L 38.62 15.86 L 40.40 17.69 L 42.20 19.86 L 43.98 22.31 L 45.70 24.97 L 47.34 27.79 L 48.88 30.68 L 50.32 33.59 L 51.63 36.46 L 52.84 39.22 L 53.95 41.83 L 54.98 44.24 L 55.94 46.43 L 56.86 48.38 L 57.78 50.07 L 58.70 51.52 L 59.67 52.74 L 60.68 53.75 L 61.77 54.60 L 62.94 55.32 L 64.18 55.95 L 65.50 56.56 L 66.87 57.18 L 68.26 57.86 L 69.65 58.64 L 70.99 59.57 L 72.24 60.65 L 73.35 61.91 L 74.27 63.35 L 74.93 64.98 L 75.30 66.76 L 75.33 68.67 L 74.97 70.67 L 74.20 72.72 L 72.99 74.77 L 71.34 76.76 L 69.24 78.62 L 66.71 80.31 L 63.77 81.77 L 60.47 82.95 L 56.85 83.80 L 52.98 84.29 L 48.93 84.40 L 44.76 84.11 L 40.56 83.43 L 36.41 82.36 L 32.39 80.93 L 28.57 79.16 L 25.03 77.10 L 21.83 74.80 L 19.02 72.31 L 16.65 69.68 L 14.75 66.98 L 13.34 64.26 L 12.43 61.58 L 12.00 58.97 L 12.05 56.48 L 12.54 54.14 L 13.45 51.97 L 14.73 49.99 L 16.33 48.20 L 18.21 46.58 L 20.31 45.14 L 22.58 43.83 L 24.98 42.65 L 27.46 41.55 L 29.99 40.50 L 32.54 39.48 L 35.09 38.46 L 37.61 37.40 L 40.11 36.29 L 42.58 35.13 L 45.02 33.91 L 47.44 32.64 L 49.85 31.34 L 52.27 30.03 L 54.71 28.75 L 57.16 27.54 L 59.65 26.46 L 62.17 25.55 L 64.72 24.86 L 67.29 24.45 L 69.86 24.36 L 72.40 24.65 L 74.89 25.34 L 77.28 26.46 L 79.54 28.03 L 81.63 30.05 L 83.49 32.50 L 85.08 35.37 L 86.37 38.61 L 87.30 42.18 L 87.86 46.02 L 88.00 50.06 L 87.72 54.22 L 87.01 58.42 L 85.87 62.59" fill="none" stroke="#a3e635" stroke-width="6.5" stroke-linecap="round" stroke-linejoin="round"/>
</svg>